<svg xmlns="http://www.w3.org/2000/svg" viewBox="0 0 70 40" fill="#FFFFFF">
  <path d="M28.51 18.62 24.77 13h-3.292l5.55 8.268v5.228h2.982v-5.228L35.542 13h-3.275l-3.757 5.62Zm-11.462-.564h-6.084V13H8v13.495h2.964v-5.569h6.084v5.569h2.982V13h-2.982v5.056Zm29.629-4.262c-1.045-.529-2.275-.794-3.688-.794h-6.016v13.495h6.016c1.39 0 2.61-.273 3.662-.82a5.822 5.822 0 0 0 2.44-2.35c.574-1.018.861-2.217.861-3.595 0-1.377-.284-2.608-.853-3.621a5.634 5.634 0 0 0-2.422-2.315Zm-.828 8.96c-.69.73-1.643 1.093-2.861 1.093h-3.05v-8.2h3.05c1.218 0 2.172.36 2.861 1.077.69.717 1.035 1.714 1.035 2.99 0 1.275-.345 2.312-1.035 3.04ZM62 15.87V13H51.382v13.495H62v-2.87h-7.652V21.08H62v-2.733h-7.652V15.87H62Z" />
</svg>