<svg width="104" height="32" viewBox="0 0 104 32" fill="none" xmlns="http://www.w3.org/2000/svg">
<g clip-path="url(#clip0_27488_50402)">
<path fill-rule="evenodd" clip-rule="evenodd" d="M41.6803 1.57138C39.2312 1.59261 36.8665 2.46877 34.9948 4.04843C34.5145 3.84376 33.9388 3.56131 33.2838 3.2399C30.6304 1.93798 26.6742 -0.00317383 22.4751 -0.00317383C16.2089 -0.00317383 12.2341 3.98762 12.2341 8.22485C12.2277 11.726 15.2168 14.0782 18.5579 14.0782C23.4864 14.0782 24.2161 10.5579 24.2001 10.1194C24.2071 9.80221 24.1017 9.49272 23.9025 9.24575C23.7873 9.16894 23.6177 9.17854 23.6241 9.31296C23.6241 10.6635 21.0638 13.387 17.9115 13.403C10.6436 13.4382 13.6103 0.608087 21.6175 0.608087C25.0265 0.608087 28.5802 2.36743 31.5671 3.84619C32.4274 4.27208 33.2407 4.67472 33.9899 5.00533C31.8649 7.30956 29.5863 10.4139 26.2899 16.9713C21.7807 25.9322 15.8665 31.4592 9.29942 31.4592C5.67026 31.4592 1.98029 29.1133 1.98029 23.4008C1.98029 13.739 14.804 11.0859 14.804 20.9941C14.804 25.0553 11.9973 27.1835 9.68346 27.2059C7.0432 27.2059 6.48314 25.577 6.48314 24.0056C6.48314 22.0385 7.07582 21.0279 7.36303 20.5381C7.54775 20.2232 7.60612 20.1236 7.29922 20.1236C4.41894 20.1236 3.74367 27.7564 10.0611 27.7564C14.0967 27.7564 16.5449 24.1912 16.5898 20.7157C16.6282 17.4162 14.4999 14.203 9.50424 14.203C3.24762 14.2126 -0.00390625 18.7379 -0.00390625 23.2247C-0.00390625 27.6316 3.17401 32 9.77627 32C15.0824 32 18.4843 29.7598 21.4382 26.9883C24.6866 23.9608 26.6996 19.9764 28.3957 16.1072C29.0038 16.2096 30.1879 16.3793 30.636 16.2545C30.3159 16.7473 29.4518 18.4499 29.8999 18.3859C30.0528 18.3645 30.2123 18.115 30.4574 17.7318C30.7251 17.3132 31.0949 16.7349 31.6697 16.12C32.1859 15.6239 32.792 15.2308 33.4554 14.9615C34.8092 14.3759 34.3835 13.387 33.6699 13.387C32.9957 13.387 32.4994 13.8987 31.9863 14.4276C31.4374 14.9935 30.8693 15.5792 30.0439 15.5792C29.5922 15.5675 29.1429 15.5096 28.703 15.4064C29.7495 12.8461 32.3705 7.54958 34.742 5.42137C34.8679 5.47522 35.0286 5.54723 35.2182 5.6322C36.5948 6.24913 39.4966 7.54958 41.6963 7.54958C47.6041 7.54958 48.4169 1.58098 41.6963 1.58098L41.6803 1.57138ZM42.0259 6.46467C40.0516 6.46467 38.0554 5.52107 36.6077 4.8368C36.3072 4.69472 36.0302 4.56382 35.7821 4.45487C37.3598 3.10434 39.4976 2.09624 41.5811 2.08984C46.5511 2.08984 46.7592 6.46467 42.0259 6.46467Z" fill="white"/>
<path d="M12.3878 29.6414C16.3434 27.91 22.3536 18.4403 23.5601 15.832C22.8528 15.832 19.6109 15.9408 19.6109 18.9587C19.0796 18.9587 18.5612 18.3379 18.59 17.5986C18.59 16.3953 19.8221 15.1631 23.9697 15.1631C25.7139 12.3053 28.4502 8.52568 30.2807 7.25195C31.052 6.7175 31.068 6.83591 30.6008 7.38317C30.0119 8.19285 29.1606 9.42817 28.2421 10.9771C27.4696 12.2371 26.6763 13.7316 25.8229 15.3396C25.029 16.8355 24.1829 18.4296 23.2528 20.0244C21.6032 22.742 19.5533 25.1954 17.1722 27.302C15.2008 28.9181 13.2038 29.923 11.9941 30.1822C11.4565 30.2911 11.5365 29.9134 12.391 29.6318L12.3878 29.6414Z" fill="white"/>
<path d="M45.4892 16.0286C45.6161 16.2186 45.6839 16.442 45.6839 16.6705C45.6839 16.9769 45.5622 17.2708 45.3455 17.4874C45.1288 17.7041 44.835 17.8258 44.5286 17.8258C44.3001 17.8258 44.0767 17.7581 43.8867 17.6311C43.6967 17.5042 43.5486 17.3237 43.4612 17.1126C43.3738 16.9015 43.3509 16.6692 43.3955 16.4451C43.44 16.221 43.5501 16.0151 43.7116 15.8536C43.8732 15.692 44.0791 15.582 44.3032 15.5374C44.5273 15.4928 44.7596 15.5157 44.9707 15.6031C45.1818 15.6906 45.3622 15.8386 45.4892 16.0286Z" fill="white"/>
<path fill-rule="evenodd" clip-rule="evenodd" d="M98.47 16.1264H103.686V16.5297L98.1083 16.7153C98.1083 16.7153 96.1881 19.4548 94.4888 22.0406C94.2615 22.3607 92.3734 25.417 91.7525 26.5211C90.722 28.3517 90.8084 29.4654 92.575 29.4654C92.6197 29.4654 92.6778 29.4615 92.7418 29.4571C93.0947 29.4333 93.6286 29.3972 93.103 29.939C92.7542 30.3007 92.0149 30.4223 91.5317 30.4223C87.3585 30.4223 89.5219 26.9403 91.2916 24.4537C91.2297 24.521 91.1479 24.6158 91.0486 24.7309C90.2613 25.644 88.3679 27.8396 86.424 27.8396C85.3007 27.8396 84.6606 27.1419 84.6606 26.2619C84.6606 25.0099 85.8424 23.4087 86.8001 22.1112C87.7765 20.7884 88.5199 19.7812 87.5409 19.7812C87.2368 19.7812 86.7504 20.0532 86.1679 20.4213C84.8114 21.2874 83.6372 22.4105 82.7116 23.7272C81.265 25.6666 79.8793 27.7404 79.8793 27.7404H77.7223L81.6587 21.8166C80.7018 22.6551 78.6984 23.2792 77.7223 22.0918C77.5271 24.3481 74.4036 28.0284 71.8881 28.0284C69.7375 28.0284 69.1934 25.8618 69.7599 24.188C68.1117 26.2715 66.4924 27.782 64.9114 27.782C64.6841 27.7835 64.4589 27.7379 64.2501 27.6482C64.0412 27.5584 63.8532 27.4265 63.6978 27.2605C63.5424 27.0946 63.423 26.8984 63.3471 26.6841C63.2712 26.4698 63.2405 26.2422 63.2568 26.0154C63.2568 25.0218 64.2267 23.7304 65.0986 22.5694C65.8106 21.6215 66.4572 20.7605 66.4572 20.2197C66.4572 20.0468 66.3804 19.778 66.0955 19.778C65.4939 19.778 64.7866 20.1492 63.9897 20.7893C62.5336 22.0444 61.8868 23.0314 60.8442 24.6224C60.725 24.8043 60.6007 24.994 60.4694 25.1929C60.2893 25.4683 60.172 25.6547 60.0536 25.8427C59.8143 26.2228 59.5707 26.6098 58.7956 27.7532H56.6354C56.6354 27.7532 60.559 21.8518 60.9014 21.3302C60.9129 21.3128 60.9251 21.2944 60.9378 21.2753C61.264 20.7848 61.9441 19.762 61.1062 19.762C59.7621 19.762 57.4227 21.8198 55.5025 24.4121C54.7568 25.513 53.2622 27.7532 53.2622 27.7532H51.1084L55.0512 21.8166C54.4363 22.0865 53.7788 22.2468 53.1086 22.2903C52.4782 22.2871 51.8893 21.9798 51.8893 21.0965C51.9017 20.7581 52.0211 20.4322 52.2304 20.1659C52.4398 19.8997 52.7282 19.7067 53.0542 19.6148C51.1596 19.6948 48.5194 22.1846 45.9399 26.0442C45.2614 27.0587 44.8006 27.7596 44.8006 27.7596H42.6436C42.6436 27.7596 43.6165 26.3451 44.7334 24.6649C44.715 24.6807 44.6632 24.7346 44.5835 24.8176C43.9711 25.4552 41.7085 27.8108 40.2529 27.8108C38.8448 27.8108 38.4352 26.2875 38.6784 25.0073C38.6784 25.0073 36.7198 27.798 34.886 27.798C33.4811 27.798 32.9338 26.3867 33.049 25.2378C33.0411 25.2219 33.0332 25.2257 33.0223 25.2308C33.0155 25.234 33.0076 25.2378 32.9978 25.2378C32.745 25.6826 31.1448 27.8172 29.2246 27.798C24.8402 27.798 28.0821 19.2916 33.161 19.2916C34.4956 19.2916 35.158 19.8196 35.158 20.9429C35.5069 20.4021 36.2173 19.3428 36.2173 19.3428H38.3744C38.3744 19.3428 36.1981 22.5975 35.0812 24.3097C34.2971 25.5066 33.7787 27.1899 34.8732 27.1899C36.6312 27.1899 38.3587 24.5638 39.7704 22.4177C39.8055 22.3643 39.8405 22.3111 39.8753 22.2583C40.9314 20.6517 41.8467 19.314 41.8467 19.314H44.0037C44.0037 19.314 41.9683 22.3831 40.5506 24.5529C39.4209 26.121 39.5297 27.1835 40.2753 27.1835C41.7827 27.1835 45.239 23.7272 46.996 21.0389C47.6713 20.0052 48.1289 19.3172 48.1289 19.3172H50.2987L48.7754 21.5574V21.5798C50.3756 20.0308 52.0237 19.1347 52.9358 19.1347C54.84 19.1347 54.6704 21.1413 53.7103 21.7814L53.7442 21.7744C54.2376 21.6729 55.2376 21.4671 55.8161 20.6197L56.677 19.3172H58.882L57.4643 21.4038C59.1732 19.714 60.5334 19.2724 61.4135 19.2724C63.5318 19.2724 62.6966 21.295 62.633 21.4025C62.9327 21.0127 64.4833 19.2724 66.3324 19.2724C67.4525 19.2724 67.9133 19.7972 67.9133 20.6837C67.9239 21.6516 67.2291 22.7536 66.1949 24.3939C65.9811 24.7331 65.7527 25.0954 65.5131 25.4842C65.491 25.5197 65.468 25.5566 65.4443 25.5944C65.053 26.2202 64.4907 27.1195 65.2602 27.1195C67.0974 27.1195 70.3126 22.6101 70.8374 21.874C70.8776 21.8177 70.902 21.7834 70.9088 21.775C72.1889 20.1204 73.7155 19.0259 75.6901 19.0259C76.8038 19.0259 77.4663 19.9124 77.7223 20.8405C78.7304 23.8296 81.8507 21.4262 82.8428 19.9892C82.9415 19.8471 83.0354 19.7037 83.1251 19.5666C83.1808 19.4815 83.2349 19.3988 83.2876 19.3204H85.4447L83.9949 21.4998C84.0254 21.4738 84.0752 21.4267 84.1422 21.3632C84.6864 20.8479 86.3635 19.2596 88.0305 19.2596C89.221 19.2596 89.4483 20.1236 89.4483 20.8149C89.4483 21.8855 88.5906 23.181 87.8264 24.3354C87.478 24.8616 87.1491 25.3585 86.9296 25.7914C86.2288 27.1739 86.8336 27.5676 88.3249 26.5595C90.2451 25.2794 92.0021 23.0391 94.0567 20.0948C94.7928 19.0451 95.6921 17.7618 96.3706 16.7377C94.2647 16.7665 77.0182 17.1473 77.0182 17.1473L76.0581 16.1872L96.7866 16.136C96.7866 16.136 98.662 12.9709 100.221 12.9709C100.525 12.9709 100.47 13.1213 100.358 13.291L98.47 16.1264ZM71.1648 27.2091C71.8689 27.686 73.6099 26.3771 74.9444 24.3929C76.2821 22.4055 76.855 20.2933 76.1541 19.8132C75.4533 19.3332 73.7379 20.6677 72.4034 22.6583C71.0688 24.6489 70.4608 26.7323 71.1648 27.2091ZM29.3399 27.1451C26.7604 27.1451 31.4745 19.9316 33.6379 19.9316C36.3422 19.9316 31.7177 27.1451 29.3399 27.1451Z" fill="white"/>
</g>
<defs>
<clipPath id="clip0_27488_50402">
<rect width="103.69" height="32" fill="white"/>
</clipPath>
</defs>
</svg>
